<svg xmlns="http://www.w3.org/2000/svg" viewBox="0 0 100 100" width="100" height="100">
  <rect width="100" height="100" rx="22" fill="#16181d"/>
  <g fill="none" stroke="#f6f4ef" stroke-width="5" stroke-linecap="round" stroke-linejoin="round">
    <path d="M24 54 C24 33 40 21 50 21 C60 21 76 33 76 54"/>
    <path d="M24 54 q6.5 8 13 0 q6.5 8 13 0 q6.5 8 13 0 q6.5 8 13 0"/>
    <path d="M33 56 C31 66 36 72 32 82"/>
    <path d="M44 58 C42 68 47 74 43 84"/>
    <path d="M56 58 C60 68 53 74 57 84"/>
    <path d="M67 56 C69 66 64 72 68 82"/>
  </g>
</svg>
